<?xml version="1.0" standalone="no"?>
<!DOCTYPE svg PUBLIC "-//W3C//DTD SVG 20010904//EN"
 "http://www.w3.org/TR/2001/REC-SVG-20010904/DTD/svg10.dtd">
<svg version="1.0" xmlns="http://www.w3.org/2000/svg"
 width="540.000000pt" height="315.000000pt" viewBox="0 0 540.000000 315.000000"
 preserveAspectRatio="xMidYMid meet">
<g transform="translate(0.000000,315.000000) scale(0.100000,-0.100000)"
fill="#0780EB" stroke="none">
<path d="M2610 2537 c-111 -26 -207 -97 -255 -190 l-28 -52 -58 -2 c-112 -4
-205 -67 -249 -165 -18 -42 -25 -48 -51 -48 -105 0 -198 -102 -199 -216 0 -80
41 -151 109 -186 52 -27 58 -28 212 -28 152 0 159 1 159 20 0 19 -7 20 -164
20 -153 0 -165 1 -197 23 -57 38 -79 81 -79 152 0 106 57 166 164 173 l64 4 6
37 c8 52 56 114 113 148 37 21 60 28 104 28 67 0 103 -21 120 -70 8 -22 20
-35 31 -35 10 0 18 2 18 5 0 16 -34 83 -51 101 l-20 22 21 42 c31 60 102 127
168 158 49 23 69 27 147 26 109 -1 161 -21 237 -91 54 -51 108 -148 108 -195
0 -34 2 -34 59 -5 62 30 159 30 217 0 50 -27 108 -89 125 -137 11 -32 17 -36
47 -36 104 0 182 -117 153 -228 -12 -44 -59 -98 -98 -113 -13 -5 -92 -9 -174
-9 -144 0 -149 -1 -149 -21 0 -20 4 -20 164 -17 l164 3 44 30 c62 45 88 95 88
176 0 110 -54 184 -155 211 -34 9 -46 19 -68 59 -26 48 -87 101 -137 121 -69
27 -131 28 -220 4 -23 -6 -27 -3 -39 31 -64 182 -264 293 -451 250z"/>
<path d="M2581 2450 c-42 -10 -82 -47 -63 -59 19 -11 101 30 102 52 0 9 -1 17
-2 16 -2 -1 -18 -5 -37 -9z"/>
<path d="M3230 2161 c0 -12 7 -21 15 -21 22 0 82 -57 89 -85 8 -31 36 -33 36
-2 0 50 -49 100 -117 121 -19 6 -23 4 -23 -13z"/>
<path d="M2662 2007 c-10 -38 -16 -45 -50 -56 -34 -11 -42 -11 -73 8 l-35 21
-42 -43 -42 -42 21 -35 c19 -30 20 -38 8 -72 -10 -31 -19 -40 -51 -50 l-38
-11 0 -62 0 -63 35 -6 c19 -4 37 -11 40 -16 4 -6 -116 -10 -325 -10 l-331 0
-24 -25 -25 -24 0 -448 0 -448 -53 -2 c-63 -2 -129 -25 -174 -59 l-34 -26 -37
26 c-63 43 -112 59 -187 59 -125 0 -223 -60 -277 -171 -28 -56 -33 -78 -33
-137 0 -59 5 -81 33 -137 85 -173 290 -228 451 -122 l53 36 22 -21 c75 -71
226 -88 328 -38 32 16 75 48 97 74 41 46 81 134 81 178 l0 25 110 0 110 0 0
-135 0 -135 -75 0 c-68 0 -75 -2 -75 -20 0 -20 7 -20 655 -20 648 0 655 0 655
20 0 18 -7 20 -80 20 l-80 0 0 135 0 135 110 0 110 0 0 -30 c0 -51 38 -134 82
-179 105 -107 268 -129 390 -52 l44 28 34 -24 c52 -35 134 -56 196 -50 164 17
284 148 284 311 0 93 -24 151 -89 217 -101 100 -235 121 -360 57 l-68 -34 -50
28 c-28 16 -78 33 -112 39 l-61 11 0 449 c0 436 -1 450 -20 469 -19 19 -33 20
-350 20 -314 0 -381 6 -292 27 l37 9 3 61 3 61 -38 9 c-30 7 -42 16 -55 45
-17 35 -17 37 5 77 l22 41 -42 41 -41 42 -37 -23 c-33 -21 -40 -21 -75 -10
-33 11 -39 18 -46 54 l-9 41 -61 3 -61 3 -11 -44z m111 -37 c7 -31 15 -38 62
-56 54 -21 54 -21 85 -1 l31 20 23 -22 24 -22 -20 -37 -20 -37 23 -49 c19 -40
31 -52 57 -58 30 -8 33 -12 30 -40 -2 -26 -9 -33 -37 -43 -19 -6 -36 -18 -39
-26 -2 -8 -10 -31 -19 -51 -15 -35 -14 -39 5 -70 l21 -34 -21 -22 -22 -21 -34
21 c-31 19 -36 20 -70 5 -20 -8 -44 -18 -53 -20 -9 -3 -21 -23 -26 -44 -7 -33
-13 -38 -40 -41 -30 -3 -33 0 -43 38 -8 30 -18 43 -38 51 -15 5 -37 15 -50 21
-19 10 -29 9 -58 -7 -33 -17 -35 -18 -54 0 -25 22 -25 33 -1 65 19 24 19 25 0
62 -10 20 -19 43 -19 51 0 7 -17 18 -37 23 -31 7 -39 14 -41 37 -3 25 2 30 37
44 23 9 41 21 41 27 0 7 9 29 19 50 19 37 19 38 -1 72 l-21 36 21 20 20 21 36
-21 c34 -20 35 -20 72 -1 21 10 44 19 51 19 7 0 17 18 23 41 10 37 13 40 43
37 27 -3 33 -8 40 -38z m-313 -452 c0 -7 -9 -24 -20 -38 -27 -34 -25 -41 19
-84 l39 -38 40 21 c37 19 43 20 76 6 30 -13 38 -22 47 -61 l12 -45 61 3 60 3
9 43 c7 36 14 45 44 57 33 14 38 13 75 -7 l39 -22 41 42 42 41 -22 40 c-12 21
-22 42 -22 45 0 3 154 5 343 4 l342 -3 3 -451 2 -451 -31 -7 c-40 -8 -1852 -8
-1873 0 -14 5 -16 55 -16 453 0 246 3 451 7 454 3 4 159 7 345 7 264 0 338 -3
338 -12z m-1133 -943 c60 -18 135 -80 166 -139 17 -32 22 -58 22 -121 0 -90
-14 -125 -74 -188 -59 -63 -104 -82 -196 -82 -92 0 -137 19 -196 82 -50 52
-70 96 -76 163 -8 85 17 152 82 216 78 78 166 100 272 69z m457 -5 c61 -23
124 -80 152 -138 22 -46 30 -144 15 -198 -28 -103 -148 -194 -256 -194 -62 0
-126 21 -172 56 l-33 25 19 27 c10 15 27 54 36 86 22 74 14 146 -25 222 l-28
55 39 26 c85 56 163 66 253 33z m2043 5 c28 -8 61 -23 73 -33 l21 -17 -33 -64
c-29 -56 -33 -74 -33 -140 0 -42 4 -86 8 -98 8 -22 6 -23 -52 -23 -60 0 -61 0
-61 29 0 63 11 91 36 91 20 0 24 5 24 28 0 43 -11 72 -27 72 -12 0 -14 9 -8
50 l7 50 -50 0 -49 0 -9 -62 c-8 -59 -11 -63 -36 -66 -30 -4 -33 -14 -22 -71
5 -23 11 -30 21 -26 13 4 14 -9 8 -95 l-7 -100 131 0 c117 0 131 2 131 17 0
12 3 14 11 6 17 -17 2 -32 -55 -59 -129 -60 -293 1 -357 133 -31 66 -32 171
-1 229 31 61 69 102 116 126 81 41 132 47 213 23z m465 -22 c169 -95 193 -322
47 -446 -135 -116 -344 -73 -423 85 -29 58 -35 149 -14 209 56 163 241 235
390 152z m-771 -29 c-38 -41 -56 -72 -69 -115 l-17 -59 -717 0 -717 0 -11 43
c-16 60 -54 120 -97 156 l-38 31 859 0 858 0 -51 -56z m213 -94 c-6 -57 -6
-60 15 -60 12 0 19 -4 16 -10 -3 -5 -14 -10 -24 -10 -15 0 -19 -12 -24 -67
-12 -122 -18 -113 68 -113 60 0 75 -3 75 -15 0 -12 -17 -15 -91 -15 l-92 0 7
77 c4 43 10 88 13 101 4 18 1 22 -21 22 -14 0 -26 5 -26 10 0 6 11 10 24 10
22 0 25 5 32 58 7 63 10 72 25 72 6 0 7 -22 3 -60z m-554 -255 l0 -135 -460 0
-460 0 0 135 0 135 460 0 460 0 0 -135z"/>
<path d="M2710 1930 c0 -13 7 -20 20 -20 13 0 20 7 20 20 0 13 -7 20 -20 20
-13 0 -20 -7 -20 -20z"/>
<path d="M2532 1867 c-10 -11 -9 -17 3 -27 24 -20 45 4 24 26 -14 13 -17 13
-27 1z"/>
<path d="M2904 1859 c-10 -17 13 -36 27 -22 12 12 4 33 -11 33 -5 0 -12 -5
-16 -11z"/>
<path d="M2695 1810 c-45 -10 -81 -37 -99 -75 -58 -122 57 -249 182 -200 47
19 79 57 88 104 6 27 4 31 -15 31 -14 0 -21 -6 -21 -20 0 -11 -13 -34 -29 -52
-25 -28 -36 -33 -76 -33 -40 0 -51 5 -76 33 -69 77 -8 188 99 180 27 -2 37 1
37 12 0 17 -49 28 -90 20z"/>
<path d="M2808 1733 l-78 -77 -38 37 c-32 31 -41 35 -50 24 -9 -10 -1 -24 38
-62 l50 -49 90 89 c50 49 89 94 87 99 -8 23 -27 11 -99 -61z"/>
<path d="M2450 1665 c0 -8 9 -15 20 -15 11 0 20 7 20 15 0 8 -9 15 -20 15 -11
0 -20 -7 -20 -15z"/>
<path d="M2970 1665 c0 -8 9 -15 20 -15 11 0 20 7 20 15 0 8 -9 15 -20 15 -11
0 -20 -7 -20 -15z"/>
<path d="M2524 1489 c-3 -6 -1 -16 4 -21 13 -13 45 8 36 23 -7 12 -31 11 -40
-2z"/>
<path d="M2900 1490 c-11 -7 -12 -12 -3 -21 14 -14 46 -4 41 13 -6 16 -20 19
-38 8z"/>
<path d="M2710 1400 c0 -13 7 -20 20 -20 13 0 20 7 20 20 0 13 -7 20 -20 20
-13 0 -20 -7 -20 -20z"/>
<path d="M1179 437 c-30 -59 -50 -110 -46 -119 3 -9 29 -24 58 -33 49 -17 55
-17 106 -1 30 10 57 24 60 32 9 24 -86 224 -107 224 -12 0 -34 -32 -71 -103z
m117 -48 c14 -28 24 -52 22 -54 -7 -6 -47 -25 -52 -25 -3 0 -6 29 -6 65 0 36
2 65 5 65 2 0 16 -23 31 -51z m-69 -76 c-3 -2 -16 2 -30 8 l-26 12 27 51 27
51 3 -59 c2 -32 1 -60 -1 -63z"/>
<path d="M1137 256 c-7 -17 93 -176 111 -176 12 0 62 72 96 139 26 49 9 60
-52 35 -46 -20 -48 -20 -87 -2 -48 21 -61 22 -68 4z m134 -56 c23 13 24 6 2
-31 -21 -35 -28 -34 -55 9 l-20 32 27 -10 c18 -7 32 -7 46 0z"/>
<path d="M1600 480 c0 -11 -7 -20 -15 -20 -8 0 -15 -9 -15 -20 0 -11 7 -20 15
-20 11 0 15 -12 15 -45 0 -33 -4 -45 -15 -45 -8 0 -15 -9 -15 -19 0 -10 7 -21
15 -25 10 -4 15 -20 15 -51 0 -33 -4 -45 -15 -45 -8 0 -15 -9 -15 -20 0 -11 7
-20 15 -20 8 0 15 -4 15 -10 0 -14 37 -12 44 3 5 9 7 9 12 0 7 -15 44 -17 44
-3 0 5 18 13 39 16 72 12 106 66 77 123 -9 17 -21 31 -26 31 -6 0 -7 19 -3 45
5 39 2 49 -17 70 -12 13 -33 26 -46 29 -15 4 -24 14 -24 26 0 13 -7 20 -20 20
-13 0 -20 -7 -20 -20 0 -11 -4 -20 -10 -20 -5 0 -10 9 -10 20 0 13 -7 20 -20
20 -13 0 -20 -7 -20 -20z m145 -85 c9 -13 10 -28 4 -42 -7 -20 -16 -23 -59
-23 l-50 0 0 46 0 45 46 -3 c34 -2 50 -9 59 -23z m23 -121 c52 -36 10 -84 -75
-84 l-53 0 0 50 0 50 53 0 c31 0 61 -6 75 -16z"/>
<path d="M4164 445 c-20 -20 -25 -34 -22 -63 3 -39 1 -41 -35 -18 -61 39 -127
10 -127 -57 0 -60 66 -96 120 -67 24 13 50 -11 50 -45 0 -28 43 -65 75 -65 36
0 75 37 75 71 0 44 -16 67 -58 85 l-37 16 35 16 c47 23 66 63 50 103 -23 54
-84 66 -126 24z m86 -30 c15 -18 10 -45 -12 -59 -33 -20 -69 20 -54 60 7 18
50 18 66 -1z m-166 -81 c19 -18 19 -20 6 -45 -14 -26 -56 -25 -70 2 -9 16 -8
25 6 40 21 23 37 24 58 3z m96 -43 c0 -27 -12 -32 -34 -16 -21 16 -13 35 15
35 12 0 19 -7 19 -19z m74 -57 c19 -18 19 -20 6 -45 -14 -25 -56 -25 -70 1
-23 44 29 80 64 44z"/>
</g>
</svg>
