<?xml version="1.0" standalone="no"?>
<!DOCTYPE svg PUBLIC "-//W3C//DTD SVG 20010904//EN"
 "http://www.w3.org/TR/2001/REC-SVG-20010904/DTD/svg10.dtd">
<svg version="1.0" xmlns="http://www.w3.org/2000/svg"
 width="569.000000pt" height="315.000000pt" viewBox="0 0 569.000000 315.000000"
 preserveAspectRatio="xMidYMid meet">

<g transform="translate(0.000000,315.000000) scale(0.100000,-0.100000)"
fill="#0780EB" stroke="none">
<path d="M2735 2564 c-25 -25 -16 -75 18 -94 24 -13 30 -13 55 0 55 31 35 110
-28 110 -16 0 -36 -7 -45 -16z m63 -41 c-2 -10 -10 -18 -18 -18 -8 0 -16 8
-18 18 -2 12 3 17 18 17 15 0 20 -5 18 -17z"/>
<path d="M2460 2490 c-54 -54 12 -137 76 -95 32 21 33 77 2 99 -30 21 -54 20
-78 -4z m57 -36 c8 -21 -13 -42 -28 -27 -13 13 -5 43 11 43 6 0 13 -7 17 -16z"/>
<path d="M3006 2488 c-9 -12 -16 -29 -16 -38 0 -30 30 -60 60 -60 36 0 60 23
60 59 0 56 -73 83 -104 39z m64 -38 c0 -11 -6 -20 -14 -20 -18 0 -29 16 -21
30 11 18 35 11 35 -10z"/>
<path d="M2640 2387 c-198 -67 -323 -273 -291 -477 47 -293 354 -458 618 -334
168 80 272 277 243 461 -44 273 -312 438 -570 350z m303 -55 c352 -164 282
-683 -101 -754 -208 -39 -418 117 -454 338 -27 158 62 332 207 407 73 37 117
47 200 44 66 -3 94 -9 148 -35z"/>
<path d="M2660 2205 c0 -31 -3 -35 -25 -35 -18 0 -25 -5 -25 -20 0 -15 7 -20
25 -20 24 0 25 -2 25 -75 0 -73 -1 -75 -25 -75 -18 0 -25 -5 -25 -20 0 -15 7
-20 25 -20 24 0 25 -2 25 -75 0 -73 -1 -75 -25 -75 -18 0 -25 -5 -25 -20 0
-15 7 -20 25 -20 20 0 25 -5 25 -25 0 -18 5 -25 20 -25 15 0 20 7 20 25 0 20
5 25 25 25 20 0 25 -5 25 -25 0 -18 5 -25 20 -25 15 0 20 7 20 25 0 22 4 25
35 25 77 0 145 53 145 114 0 38 -32 92 -59 101 -20 6 -20 8 -6 35 19 37 19 73
0 110 -16 32 -61 60 -95 60 -16 0 -20 6 -20 35 0 28 -4 35 -20 35 -16 0 -20
-7 -20 -35 0 -31 -3 -35 -25 -35 -22 0 -25 4 -25 35 0 28 -4 35 -20 35 -16 0
-20 -7 -20 -35z m197 -97 c33 -30 31 -80 -3 -107 -21 -16 -41 -21 -90 -21
l-64 0 0 75 0 75 67 0 c55 0 71 -4 90 -22z m47 -189 c25 -20 33 -50 20 -84
-12 -30 -60 -45 -144 -45 l-80 0 0 75 0 75 89 0 c74 0 92 -3 115 -21z"/>
<path d="M3210 2290 c-39 -39 -14 -100 43 -100 33 0 57 24 57 59 0 55 -61 80
-100 41z m60 -40 c0 -13 -7 -20 -20 -20 -19 0 -27 20 -13 33 13 14 33 6 33
-13z"/>
<path d="M2255 2277 c-20 -32 -10 -75 21 -89 55 -25 107 26 82 80 -19 39 -80
44 -103 9z m73 -34 c5 -17 -26 -29 -40 -15 -6 6 -7 15 -3 22 9 14 37 9 43 -7z"/>
<path d="M3285 2015 c-14 -13 -25 -31 -25 -40 0 -21 44 -65 65 -65 21 0 65 44
65 65 0 21 -44 65 -65 65 -9 0 -27 -11 -40 -25z m65 -40 c0 -21 -19 -28 -36
-15 -10 9 -11 16 -3 26 12 15 39 8 39 -11z"/>
<path d="M2197 2015 c-25 -24 -30 -54 -13 -79 28 -44 88 -38 107 11 20 53 -55
108 -94 68z m58 -35 c4 -6 1 -18 -6 -26 -11 -13 -14 -13 -27 0 -8 8 -11 19 -8
25 9 14 33 14 41 1z"/>
<path d="M2283 1750 c-44 -18 -44 -85 0 -110 24 -13 30 -13 55 0 68 38 17 139
-55 110z m44 -46 c8 -21 -13 -42 -28 -27 -13 13 -5 43 11 43 6 0 13 -7 17 -16z"/>
<path d="M3206 1738 c-9 -12 -16 -29 -16 -38 0 -29 30 -60 59 -60 41 0 64 22
64 60 0 58 -75 84 -107 38z m72 -35 c5 -17 -26 -29 -40 -15 -6 6 -7 15 -3 22
9 14 37 9 43 -7z"/>
<path d="M2483 1550 c-27 -11 -39 -53 -25 -85 25 -53 112 -35 112 23 0 51 -42
80 -87 62z m44 -46 c8 -21 -13 -42 -28 -27 -13 13 -5 43 11 43 6 0 13 -7 17
-16z"/>
<path d="M3024 1552 c-26 -17 -35 -51 -22 -80 10 -21 21 -28 50 -30 30 -3 40
1 53 21 28 44 0 97 -52 97 -10 0 -23 -4 -29 -8z m54 -49 c5 -17 -26 -29 -40
-15 -6 6 -7 15 -3 22 9 14 37 9 43 -7z"/>
<path d="M2638 1040 c-3 -532 2 -499 -87 -508 -49 -4 -51 -4 -51 20 0 33 -39
90 -74 106 -24 12 -27 17 -19 40 4 15 8 70 8 122 0 84 -3 102 -28 152 -36 74
-119 150 -195 178 -77 29 -177 29 -254 0 -74 -28 -159 -104 -193 -174 -23 -48
-30 -54 -63 -60 -48 -7 -81 -30 -66 -46 8 -8 19 -8 38 0 48 18 56 13 56 -29 0
-39 13 -61 25 -42 3 6 10 36 16 68 21 110 86 194 187 241 160 73 360 -11 422
-176 50 -133 18 -261 -92 -364 -48 -46 -57 -59 -44 -64 23 -9 88 36 122 85 16
22 36 41 46 41 24 0 68 -57 68 -90 0 -37 -43 -88 -78 -92 -17 -2 -28 -10 -30
-22 -4 -17 1 -18 39 -13 34 4 51 14 74 40 26 30 37 35 88 39 49 4 64 10 90 37
l32 31 3 475 c3 470 3 475 -17 475 -20 0 -20 -7 -23 -470z"/>
<path d="M2880 1035 c0 -543 -4 -519 82 -560 62 -30 68 -30 68 -7 0 20 35 62
52 62 6 0 26 -18 45 -39 35 -42 104 -75 144 -69 39 5 29 32 -14 39 -136 22
-182 190 -80 285 29 27 43 30 43 12 0 -22 50 -122 72 -145 24 -25 48 -30 48
-10 0 7 -12 29 -26 48 -41 55 -56 99 -57 174 -2 117 55 208 166 267 58 31 172
32 238 2 89 -41 152 -127 167 -226 5 -40 12 -54 26 -56 17 -4 18 1 13 49 -4
30 -9 64 -13 77 -6 19 -3 22 25 22 35 0 91 -25 91 -40 0 -6 -9 -10 -20 -10
-13 0 -20 -7 -20 -19 0 -16 8 -18 73 -18 206 1 327 -169 256 -359 -20 -54 -76
-122 -126 -154 -17 -11 -20 -19 -14 -30 8 -12 13 -12 36 0 45 24 103 89 131
147 l27 55 46 -7 c100 -14 184 -79 211 -160 19 -57 7 -136 -30 -202 -22 -39
-28 -59 -21 -66 16 -16 45 15 72 76 18 39 23 71 24 129 0 73 1 77 20 72 138
-41 169 -197 59 -294 -20 -17 -51 -33 -74 -36 -30 -5 -40 -11 -40 -25 0 -22
18 -24 72 -9 80 23 148 118 148 209 0 93 -72 178 -168 196 -25 5 -47 19 -70
46 -46 53 -108 87 -181 100 l-61 11 0 57 c0 132 -108 256 -240 277 -27 4 -51
16 -64 31 -33 39 -92 65 -141 62 -41 -3 -46 0 -90 49 -68 75 -138 107 -240
107 -71 0 -88 -4 -148 -33 -104 -51 -160 -134 -182 -267 -6 -32 -15 -46 -48
-70 -53 -38 -87 -104 -87 -167 0 -26 -4 -48 -10 -48 -5 0 -25 -13 -43 -30 -42
-36 -51 -37 -82 -5 l-25 24 0 476 c0 468 0 475 -20 475 -20 0 -20 -7 -20 -475z"/>
<path d="M1502 815 c-102 -32 -156 -110 -151 -218 4 -62 3 -65 -37 -110 l-40
-45 -61 5 c-71 6 -117 -6 -169 -48 -20 -16 -44 -29 -52 -29 -38 0 -105 -44
-133 -88 -70 -111 2 -267 126 -275 29 -1 40 2 43 14 2 12 -7 18 -36 23 -71 11
-122 70 -122 141 0 49 23 89 67 120 44 29 57 32 44 7 -5 -9 -11 -35 -12 -57
-3 -30 0 -40 12 -43 12 -2 18 7 24 35 10 55 41 105 82 133 29 20 49 25 97 25
l61 0 -3 -61 c-3 -41 0 -64 8 -69 16 -10 30 13 30 50 1 41 31 104 67 138 29
27 30 27 48 7 18 -20 45 -27 45 -11 0 5 -12 30 -26 55 -50 90 -18 207 69 253
47 25 125 22 172 -5 26 -16 41 -20 48 -13 17 17 -21 50 -76 66 -60 18 -69 18
-125 0z"/>
<path d="M3454 726 c-29 -22 -9 -31 56 -28 55 4 59 2 94 -32 33 -34 36 -41 36
-96 0 -46 3 -60 15 -60 34 0 32 118 -3 168 -12 16 -37 37 -56 46 -42 20 -116
21 -142 2z"/>
<path d="M1904 591 c-54 -24 -87 -72 -88 -125 -1 -55 25 -56 36 -2 9 45 30 71
70 92 37 19 64 18 115 -7 24 -12 47 -18 51 -15 11 12 -13 40 -49 58 -43 23
-83 22 -135 -1z"/>
<path d="M2778 360 c-34 -18 -78 -67 -78 -87 0 -5 -21 -14 -46 -21 -79 -21
-142 -110 -120 -168 10 -26 31 -10 37 30 4 23 18 50 38 69 26 27 39 32 76 31
25 0 61 -9 80 -20 57 -31 63 11 5 44 -37 21 -37 31 -1 66 21 20 43 30 76 33
35 5 45 9 43 22 -5 24 -66 24 -110 1z"/>
<path d="M3733 329 c-44 -22 -79 -66 -85 -109 -6 -43 26 -36 44 9 18 46 67 81
114 81 36 0 45 6 37 26 -8 21 -62 17 -110 -7z"/>
<path d="M3092 238 c-19 -19 -14 -97 9 -137 23 -42 82 -86 104 -77 24 9 18 23
-20 46 -45 28 -65 67 -65 124 0 48 -10 62 -28 44z"/>
</g>
</svg>
