<?xml version="1.0" standalone="no"?>
<!DOCTYPE svg PUBLIC "-//W3C//DTD SVG 20010904//EN"
 "http://www.w3.org/TR/2001/REC-SVG-20010904/DTD/svg10.dtd">
<svg version="1.0" xmlns="http://www.w3.org/2000/svg"
 width="558.000000pt" height="315.000000pt" viewBox="0 0 558.000000 315.000000"
 preserveAspectRatio="xMidYMid meet">

<g transform="translate(0.000000,315.000000) scale(0.100000,-0.100000)"
fill="#0780EB" stroke="none">
<path d="M2648 2047 c-64 -19 -123 -60 -160 -113 l-32 -44 -526 0 c-396 0
-529 -3 -538 -12 -9 -9 -12 -107 -12 -380 0 -361 0 -368 20 -368 20 0 20 7 20
360 l0 360 511 0 511 0 -6 -22 c-3 -13 -6 -71 -6 -130 l0 -108 -59 0 c-44 0
-60 -4 -65 -16 -9 -24 -7 -747 2 -762 7 -10 98 -12 423 -10 l414 3 0 390 0
390 -57 3 -58 3 -1 82 c0 45 -4 103 -8 130 l-8 47 479 0 478 0 -1 -382 c0
-211 -4 -391 -8 -401 -4 -10 -32 -29 -63 -41 l-57 -23 -57 34 -57 34 -61 -60
-60 -60 24 -43 c13 -24 28 -50 34 -59 7 -12 3 -33 -16 -75 -24 -57 -27 -60
-84 -79 l-59 -20 0 -85 0 -85 58 -14 c56 -13 60 -16 78 -58 10 -25 19 -47 19
-49 0 -2 -175 -4 -388 -4 l-388 0 -34 -35 -34 -35 -121 0 -121 0 -34 35 -34
35 -386 0 c-381 0 -410 -2 -410 -32 0 -4 175 -8 388 -8 l388 0 34 -35 34 -35
136 0 136 0 34 35 34 35 378 0 c208 0 378 -3 378 -8 0 -4 -12 -25 -26 -46
l-26 -38 61 -62 62 -61 58 32 59 31 59 -23 c48 -19 60 -29 70 -57 7 -18 12
-41 12 -51 1 -16 -64 -17 -1331 -17 -2898 1 -2648 3 -2648 -20 0 -20 5 -20
2708 -18 2398 3 2707 5 2707 18 0 13 -77 15 -618 18 l-619 2 7 43 c9 52 11 54
79 82 l55 22 57 -34 57 -34 63 62 62 62 -34 53 c-19 29 -34 57 -34 62 0 5 11
34 24 65 17 37 32 57 48 61 13 4 38 27 56 52 29 40 33 52 30 97 l-3 51 -55 14
c-55 13 -55 13 -79 74 -21 56 -22 63 -8 87 8 14 23 41 34 58 l18 33 -61 61
-61 60 -57 -34 -58 -35 -51 21 c-72 28 -73 30 -87 97 l-13 60 -78 0 -79 0 0
343 c0 253 -3 346 -12 355 -9 9 -136 12 -510 12 -333 0 -498 3 -498 10 0 21
-86 103 -132 126 -59 30 -147 38 -210 21z m202 -63 c27 -15 62 -42 76 -61 l25
-33 -220 0 c-127 0 -221 4 -221 9 0 19 95 92 139 106 64 20 139 13 201 -21z
m127 -161 c4 -16 8 -73 8 -128 l0 -100 -257 -3 -258 -2 0 107 c0 60 3 118 6
131 l6 22 244 0 244 0 7 -27z m133 -628 l0 -355 -385 0 -385 0 0 355 0 355
385 0 385 0 0 -355z m1040 -119 c16 -57 17 -59 65 -77 28 -10 61 -25 75 -33
24 -14 29 -12 80 19 l55 34 38 -37 c20 -20 37 -39 37 -43 0 -4 -14 -30 -31
-57 l-31 -50 20 -38 c11 -22 25 -56 31 -76 11 -32 18 -39 54 -48 23 -6 48 -13
55 -15 7 -3 12 -24 12 -59 l0 -55 -55 -17 c-48 -15 -56 -22 -66 -53 -7 -20
-20 -53 -31 -74 l-19 -38 32 -56 32 -55 -39 -38 -39 -39 -56 34 c-52 31 -59
32 -78 18 -12 -8 -45 -22 -73 -32 l-52 -18 -16 -64 -16 -64 -54 0 c-59 0 -55
-4 -79 91 -10 37 -15 42 -64 57 -29 9 -62 23 -72 31 -18 13 -26 11 -77 -17
l-58 -31 -39 38 -39 39 34 52 35 53 -24 48 c-13 27 -27 61 -30 75 -6 23 -16
29 -64 41 l-58 14 0 54 0 55 58 20 c46 16 59 25 64 45 3 14 17 47 30 73 l24
48 -32 56 -32 55 39 39 39 38 55 -34 c40 -25 58 -31 67 -23 7 6 41 21 76 33
l62 23 14 61 15 62 55 -3 56 -3 15 -59z"/>
<path d="M2651 1338 c-51 -27 -91 -91 -91 -142 0 -55 40 -118 90 -144 107 -55
226 7 237 125 13 135 -118 224 -236 161z m166 -62 c27 -29 33 -44 33 -81 0
-37 -6 -52 -33 -81 -65 -71 -172 -50 -206 40 -13 33 -13 44 0 79 32 93 140
115 206 43z"/>
<path d="M4050 1000 c0 -16 7 -20 30 -20 23 0 30 4 30 20 0 16 -7 20 -30 20
-23 0 -30 -4 -30 -20z"/>
<path d="M3770 895 c-13 -15 -7 -45 8 -45 15 0 44 38 37 49 -9 16 -30 14 -45
-4z"/>
<path d="M4341 897 c-17 -21 23 -55 44 -37 14 12 14 15 -1 31 -20 23 -28 23
-43 6z"/>
<path d="M3963 873 c-61 -21 -136 -92 -163 -155 -27 -61 -32 -161 -11 -221 22
-63 84 -132 148 -163 49 -25 70 -29 133 -28 89 1 134 18 197 77 63 57 93 124
93 206 0 83 -14 128 -59 187 -54 71 -141 114 -229 113 -37 0 -86 -7 -109 -16z
m207 -44 c94 -42 150 -129 150 -232 0 -98 -44 -174 -128 -220 -68 -37 -125
-43 -197 -23 -150 44 -225 218 -154 357 23 46 98 113 141 126 56 18 139 15
188 -8z"/>
<path d="M3650 590 c0 -23 4 -30 20 -30 16 0 20 7 20 30 0 23 -4 30 -20 30
-16 0 -20 -7 -20 -30z"/>
<path d="M4470 590 c0 -23 4 -30 20 -30 16 0 20 7 20 30 0 23 -4 30 -20 30
-16 0 -20 -7 -20 -30z"/>
<path d="M3765 319 c-4 -5 1 -19 11 -30 13 -15 20 -16 31 -8 11 10 11 15 -3
30 -19 22 -30 24 -39 8z"/>
<path d="M4346 311 c-15 -16 -15 -19 -1 -31 21 -18 61 16 44 37 -15 17 -23 17
-43 -6z"/>
<path d="M4050 180 c0 -15 7 -20 25 -20 18 0 25 5 25 20 0 15 -7 20 -25 20
-18 0 -25 -5 -25 -20z"/>
<path d="M1202 936 c-119 -39 -192 -138 -192 -261 0 -107 48 -189 141 -240 46
-26 65 -30 129 -30 64 0 83 4 128 29 98 55 148 146 140 259 -5 73 -28 127 -76
175 -68 67 -183 96 -270 68z m195 -62 c75 -43 113 -111 113 -201 0 -133 -95
-227 -230 -227 -101 0 -179 51 -218 144 -23 55 -13 158 21 209 30 46 90 89
139 102 50 12 128 0 175 -27z"/>
<path d="M1305 700 l-89 -90 -46 45 c-25 25 -51 45 -57 45 -32 0 -20 -28 38
-86 l64 -64 107 107 c60 59 108 113 108 120 0 32 -43 6 -125 -77z"/>
<path d="M5462 23 c3 -15 13 -18 58 -18 42 0 55 3 55 15 0 11 -14 16 -58 18
-52 3 -58 1 -55 -15z"/>
</g>
</svg>
