<svg xmlns="http://www.w3.org/2000/svg" viewBox="0 0 1920 1202"><defs><style>.cls-1{fill:#0780EB;}</style></defs><g id="Layer_2" data-name="Layer 2"><g id="Layer_1-2" data-name="Layer 1"><path class="cls-1" d="M361.81,1202h-24a60,60,0,0,0-6.36-1,260.21,260.21,0,0,1-57.49-9.29c-49-13.72-88.64-40.48-116.11-84-16.11-25.55-25.42-53.69-31.69-83C112.94,962.9,99.5,901.17,86.58,839.33q-20.13-96.44-39.41-193Q26.63,544.11,6.69,441.78C4.17,428.91.57,415.91.52,403,.07,272,.25,141,.24,10,.24,6.65.08,3.32,0,0H1920V1014c-4.13.38-8.27.67-12.38,1.17-23.43,2.83-46.86,5.74-70.29,8.58s-46.87,5.6-70.31,8.44q-39.11,4.74-78.21,9.55c-23.43,2.83-46.88,5.58-70.31,8.41s-46.86,5.77-70.29,8.6c-26.08,3.15-52.16,6.21-78.24,9.36-26.24,3.18-52.47,6.47-78.71,9.64-26.07,3.16-52.16,6.2-78.24,9.36-26.24,3.17-52.47,6.46-78.71,9.64-26.08,3.16-52.17,6.2-78.25,9.36-28.88,3.5-57.74,7.12-86.63,10.62-26.24,3.18-52.5,6.23-78.74,9.41-28.89,3.49-57.76,7.11-86.64,10.6s-57.79,6.86-86.67,10.36-57.76,7.13-86.64,10.63c-26.25,3.19-52.51,6.22-78.75,9.4-28.89,3.5-57.76,7.12-86.65,10.61s-57.79,6.86-86.67,10.35c-29.39,3.54-58.76,7.19-88.14,10.73C381,1200,371.38,1201,361.81,1202Z"/></g></g></svg>